<?xml version="1.0" encoding="utf-8"?>
<!-- Generator: Adobe Illustrator 19.2.0, SVG Export Plug-In . SVG Version: 6.00 Build 0)  -->
<svg version="1.1" id="Layer_3" xmlns="http://www.w3.org/2000/svg" xmlns:xlink="http://www.w3.org/1999/xlink" x="0px" y="0px"
	 viewBox="0 0 490.9 44.2" style="enable-background:new 0 0 490.9 44.2;" xml:space="preserve">
<style type="text/css">
	.st0{fill:none;stroke:#000000;stroke-miterlimit:10;}
</style>
<polygon class="st0" points="209.9,4 209.9,42.5 219.9,42.5 219.9,15 "/>
<path class="st0" d="M155.7,8.8c0,0-20.9-15.1-33.9,8.4c-1,5-1.4,28.2,25.1,25.7c4-2,12.6-5.3,15.1-19.3c-12.5,0-23.5,0-23.5,0"/>
<polygon class="st0" points="37.9,14 37.9,38 47.9,27 47.9,4 "/>
<polyline class="st0" points="62.9,12 62.9,42.5 71.9,42.5 71.9,3.5 47.9,27 47.9,3.5 8.6,44.2 "/>
<polyline class="st0" points="105.9,15 105.9,42.5 116.9,42.5 116.9,3.5 77.4,44 "/>
<line class="st0" x1="121.8" y1="17.1" x2="146.8" y2="42.8"/>
<path class="st0" d="M198.7,8.8c0,0-20.9-15.1-33.9,8.4c-1,5-1.4,28.2,25.1,25.7c4-2,12.6-5.3,15.1-19.3c-12.5,0-23.5,0-23.5,0"/>
<line class="st0" x1="164.8" y1="17.1" x2="189.8" y2="42.8"/>
<path class="st0" d="M484.7,7.8c0,0-20.9-15.1-33.9,8.4c-1,6.4-1.4,28.2,25.1,25.7c4-2,12.6-5.3,15.1-19.3c-12.5,0-23.5,0-23.5,0"/>
<line class="st0" x1="450.8" y1="16.1" x2="475.8" y2="41.8"/>
<line class="st0" x1="227.4" y1="42.5" x2="238.4" y2="42.5"/>
<line class="st0" x1="262.4" y1="42.5" x2="225.4" y2="42.5"/>
<polygon class="st0" points="282.9,4 282.9,42.5 293.9,42.5 293.9,12 "/>
<line class="st0" x1="317.4" y1="42.5" x2="280.4" y2="42.5"/>
<polygon class="st0" points="322.9,4 322.9,42.5 333.9,42.5 333.9,12 "/>
<line class="st0" x1="357.4" y1="42.5" x2="320.4" y2="42.5"/>
<path class="st0" d="M392.1,43c-13.3,4-22.7-1.2-22.7-1.2c-6.8-4.7-9.2-10.4-9.5-14.8c-0.3-4.7,0-23,0-23"/>
<path class="st0" d="M402.9,4v24c0,0-7,12.3-11,15c0-18,0-27.7,0-27.7L402.9,4z"/>
<polygon class="st0" points="407.9,2 407.9,41.5 418.9,41.5 418.9,13 "/>
<polyline class="st0" points="407.9,2 436.9,31 436.9,20.2 447.9,9.5 447.9,42 436.9,31 "/>
<line class="st0" x1="91.4" y1="29.5" x2="105.4" y2="29.5"/>
<line class="st0" x1="238.4" y1="29.5" x2="251.4" y2="29.5"/>
<line class="st0" x1="333.4" y1="29.5" x2="345.4" y2="29.5"/>
<polygon class="st0" points="214.2,3.5 219.9,8.7 219.9,3.5 "/>
<polygon class="st0" points="237.9,42.5 237.9,14 227.9,3.9 227.9,42.5 "/>
</svg>
